<svg id="Layer_1" data-name="Layer 1" xmlns="http://www.w3.org/2000/svg" viewBox="0 0 567 195.5"><defs><style>.cls-1,.cls-2{fill:#00aeef;}.cls-1,.cls-4{stroke:#00aeef;stroke-miterlimit:10;stroke-width:25px;}.cls-3{fill:#fff;}.cls-4{fill:none;}</style></defs><title>Untitled-1</title><path class="cls-1" d="M434,165.09c-2.22-5,.42-9.15,5.85-9.15s11.71,4.12,13.93,9.15l38.67,87.53c2.22,5,6.17,5.18,8.77.33l51-95.1c2.6-4.85,6.86-4.85,9.48,0L613,252.78c2.61,4.84,6.55,4.67,8.75-.37l38-87.31c2.2-5,8.49-9.17,14-9.17h0c5.5,0,8.17,4.11,5.94,9.14L623.51,291.69c-2.23,5-6.2,5.18-8.81.34l-53-98.11c-2.61-4.84-6.9-4.84-9.53,0l-53.44,98.33c-2.63,4.83-6.59,4.67-8.81-.36Z" transform="translate(-207 -135.5)"/><rect class="cls-2" x="134" y="7.5" width="101" height="39" rx="9" ry="9"/><rect class="cls-2" x="647" y="174" width="92" height="41" rx="9" ry="9" transform="translate(272.22 -628.3) rotate(57.04)"/><path class="cls-2" d="M413.23,246H289.53a7.9,7.9,0,0,1-7.73-8.06V215.06a7.9,7.9,0,0,1,7.73-8.06H406.19a7.77,7.77,0,0,1,7.36,5.6l7,22.89C422.19,240.68,418.47,246,413.23,246Z" transform="translate(-207 -135.5)"/><path class="cls-2" d="M441.26,307H288.81a7.9,7.9,0,0,1-7.73-8.06V276.06a7.9,7.9,0,0,1,7.73-8.06H432.25a7.74,7.74,0,0,1,7.15,5l9,22.89C450.5,301.19,446.76,307,441.26,307Z" transform="translate(-207 -135.5)"/><ellipse class="cls-3" cx="74.05" cy="124.5" rx="74.05" ry="71"/><path class="cls-2" d="M266.62,302.6a68.15,68.15,0,0,1-27.38-5.54,56,56,0,0,1-15.15-10.27c-3.9-3.87-4.56-9.17-1.46-11.78s8.75-1.48,12.56,2.49a40.25,40.25,0,0,0,9.73,6.67A47,47,0,0,0,267,289.41,35,35,0,0,0,280.16,287a30.33,30.33,0,0,0,10-6.39,28.25,28.25,0,0,0,6.39-9.46,30.06,30.06,0,0,0,2.26-11.68,22.5,22.5,0,0,0-2.06-10,26.23,26.23,0,0,0-5.49-7.5,34.27,34.27,0,0,0-8.15-5.69L280,234.76c-3.69-1.55-10.69-4.36-15.57-6.24s-12.53-5-17-6.91l-3.82-2.15a41.39,41.39,0,0,1-10.06-7.85,36.82,36.82,0,0,1-6.94-10.72,36.11,36.11,0,0,1-2.62-14.34,34.32,34.32,0,0,1,3.42-15.2,38.05,38.05,0,0,1,9.31-12.18A45.19,45.19,0,0,1,250.57,151a48.79,48.79,0,0,1,17.36-3q13.38,0,22.34,3.82a46.42,46.42,0,0,1,8.8,4.67c4.4,3.3,5.87,8.44,3.27,11.43s-8.24,2.61-12.52-.83a36.89,36.89,0,0,0-5.34-2.54,41.44,41.44,0,0,0-16.56-3.07,32.47,32.47,0,0,0-11.07,1.81,26.7,26.7,0,0,0-8.86,5.23,25.09,25.09,0,0,0-6,8,22.57,22.57,0,0,0-2.16,9.86,19.67,19.67,0,0,0,1.86,8.81,23.51,23.51,0,0,0,4.93,6.69,33.32,33.32,0,0,0,7.3,5.18l2.82,1.51c3.38,1.41,10,4.11,14.69,6s12.47,5.11,17.26,7.18l4.13,2.28a49,49,0,0,1,11,8.25,36.65,36.65,0,0,1,7.7,11.42,39,39,0,0,1,2.87,15.65,40,40,0,0,1-3.67,17.06,42.81,42.81,0,0,1-10.16,13.79,46.81,46.81,0,0,1-15.25,9.16A53.08,53.08,0,0,1,266.62,302.6Z" transform="translate(-207 -135.5)"/><path class="cls-4" d="M266.62,302.6a68.15,68.15,0,0,1-27.38-5.54,56,56,0,0,1-15.15-10.27c-3.9-3.87-4.56-9.17-1.46-11.78s8.75-1.48,12.56,2.49a40.25,40.25,0,0,0,9.73,6.67A47,47,0,0,0,267,289.41,35,35,0,0,0,280.16,287a30.33,30.33,0,0,0,10-6.39,28.25,28.25,0,0,0,6.39-9.46,30.06,30.06,0,0,0,2.26-11.68,22.5,22.5,0,0,0-2.06-10,26.23,26.23,0,0,0-5.49-7.5,34.27,34.27,0,0,0-8.15-5.69L280,234.76c-3.69-1.55-10.69-4.36-15.57-6.24s-12.53-5-17-6.91l-3.82-2.15a41.39,41.39,0,0,1-10.06-7.85,36.82,36.82,0,0,1-6.94-10.72,36.11,36.11,0,0,1-2.62-14.34,34.32,34.32,0,0,1,3.42-15.2,38.05,38.05,0,0,1,9.31-12.18A45.19,45.19,0,0,1,250.57,151a48.79,48.79,0,0,1,17.36-3q13.38,0,22.34,3.82a46.42,46.42,0,0,1,8.8,4.67c4.4,3.3,5.87,8.44,3.27,11.43s-8.24,2.61-12.52-.83a36.89,36.89,0,0,0-5.34-2.54,41.44,41.44,0,0,0-16.56-3.07,32.47,32.47,0,0,0-11.07,1.81,26.7,26.7,0,0,0-8.86,5.23,25.09,25.09,0,0,0-6,8,22.57,22.57,0,0,0-2.16,9.86,19.67,19.67,0,0,0,1.86,8.81,23.51,23.51,0,0,0,4.93,6.69,33.32,33.32,0,0,0,7.3,5.18l2.82,1.51c3.38,1.41,10,4.11,14.69,6s12.47,5.11,17.26,7.18l4.13,2.28a49,49,0,0,1,11,8.25,36.65,36.65,0,0,1,7.7,11.42,39,39,0,0,1,2.87,15.65,40,40,0,0,1-3.67,17.06,42.81,42.81,0,0,1-10.16,13.79,46.81,46.81,0,0,1-15.25,9.16A53.08,53.08,0,0,1,266.62,302.6Z" transform="translate(-207 -135.5)"/><rect class="cls-2" x="490" y="65.5" width="77" height="41" rx="9" ry="9"/></svg>